<?xml version="1.0" encoding="utf-8" ?>
<svg baseProfile="full" height="130pt" version="1.1" viewBox="0 0 480 130" width="480pt" xmlns="http://www.w3.org/2000/svg" xmlns:ev="http://www.w3.org/2001/xml-events" xmlns:xlink="http://www.w3.org/1999/xlink"><defs /><svg baseProfile="full" height="130pt" version="1.1" width="120pt" x="0" xmlns="http://www.w3.org/2000/svg" xmlns:ev="http://www.w3.org/2001/xml-events" xmlns:xlink="http://www.w3.org/1999/xlink" y="0"><defs /><rect fill="red" height="130" stroke="black" width="120" x="0" y="0" /><text x="12" y="75"><tspan fill="black" font-size="60pt">C</tspan></text><text x="5" y="15"><tspan fill="black" font-size="15pt"> 12.0</tspan></text><text x="5" y="97.5"><tspan fill="black" font-size="15pt"> 6</tspan></text><text x="5" y="120"><tspan fill="black" font-size="15pt">Carbon</tspan></text></svg><svg baseProfile="full" height="130pt" version="1.1" width="120pt" x="120" xmlns="http://www.w3.org/2000/svg" xmlns:ev="http://www.w3.org/2001/xml-events" xmlns:xlink="http://www.w3.org/1999/xlink" y="0"><defs /><rect fill="white" height="130" stroke="black" width="120" x="0" y="0" /><text x="12" y="75"><tspan fill="black" font-size="60pt">He</tspan></text><text x="5" y="15"><tspan fill="black" font-size="15pt">  4.0</tspan></text><text x="5" y="97.5"><tspan fill="black" font-size="15pt"> 2</tspan></text><text x="5" y="120"><tspan fill="black" font-size="15pt">Helium</tspan></text></svg><svg baseProfile="full" height="130pt" version="1.1" width="120pt" x="240" xmlns="http://www.w3.org/2000/svg" xmlns:ev="http://www.w3.org/2001/xml-events" xmlns:xlink="http://www.w3.org/1999/xlink" y="0"><defs /><rect fill="green" height="130" stroke="black" width="120" x="0" y="0" /><text x="12" y="75"><tspan fill="black" font-size="60pt">W</tspan></text><text x="5" y="15"><tspan fill="black" font-size="15pt">183.8</tspan></text><text x="5" y="97.5"><tspan fill="black" font-size="15pt">74</tspan></text><text x="5" y="120"><tspan fill="black" font-size="15pt">Tungsten</tspan></text></svg><svg baseProfile="full" height="130pt" version="1.1" width="120pt" x="360" xmlns="http://www.w3.org/2000/svg" xmlns:ev="http://www.w3.org/2001/xml-events" xmlns:xlink="http://www.w3.org/1999/xlink" y="0"><defs /><rect fill="orange" height="130" stroke="black" width="120" x="0" y="0" /><text x="12" y="75"><tspan fill="black" font-size="60pt">S</tspan></text><text x="5" y="15"><tspan fill="black" font-size="15pt"> 32.1</tspan></text><text x="5" y="97.5"><tspan fill="black" font-size="15pt">16</tspan></text><text x="5" y="120"><tspan fill="black" font-size="15pt">Sulfur</tspan></text></svg></svg>